<?xml version="1.0" encoding="UTF-8"?>
<svg xmlns="http://www.w3.org/2000/svg" xmlns:xlink="http://www.w3.org/1999/xlink" width="350px" height="495px" viewBox="0 0 350 494" version="1.1">
<g id="surface1">
<path style=" stroke:none;fill-rule:nonzero;fill:rgb(0%,0%,0%);fill-opacity:1;" d="M 182.664062 127.304688 C 110.679688 127.304688 59.851562 178.042969 59.851562 249.894531 C 59.851562 321.75 110.679688 372.488281 182.664062 372.488281 C 254.648438 372.488281 305.476562 321.75 305.476562 249.894531 C 305.476562 178.042969 254.648438 127.304688 182.664062 127.304688 Z M 181.367188 144.285156 C 167.480469 149.859375 154.550781 157.3125 142.910156 166.347656 C 144.351562 160.792969 146.132812 155.375 148.234375 150.121094 C 158.894531 146.425781 170.082031 144.453125 181.367188 144.285156 Z M 203.917969 146.402344 C 210.199219 147.710938 216.347656 149.582031 222.289062 152 C 218.464844 155.25 214.75 158.652344 211.175781 162.222656 C 198.980469 174.398438 188.625 188.066406 180.28125 202.792969 C 179.933594 202.761719 179.582031 202.746094 179.234375 202.742188 C 172.230469 202.742188 166.550781 208.40625 166.550781 215.398438 C 166.554688 218.597656 167.773438 221.675781 169.957031 224.015625 C 165.875 233.941406 162.632812 244.210938 160.289062 254.71875 C 156.03125 253.3125 151.863281 251.699219 147.800781 249.894531 C 144.902344 242.449219 142.644531 234.683594 141.085938 226.667969 C 145.324219 224.503906 147.996094 220.152344 147.996094 215.398438 C 147.988281 209.679688 144.140625 204.675781 138.605469 203.191406 C 138.589844 202.316406 138.574219 201.441406 138.574219 200.5625 C 138.574219 193.703125 139.085938 186.964844 140.066406 180.382812 C 157.980469 164.292969 179.792969 152.464844 203.917969 146.402344 Z M 137.03125 154.671875 C 134.730469 161.554688 132.902344 168.65625 131.652344 175.953125 C 119.433594 187.386719 109.019531 200.714844 100.875 215.46875 C 96.660156 210.695312 92.789062 205.613281 89.269531 200.28125 C 99.90625 180.378906 116.644531 164.394531 137.03125 154.671875 Z M 231.398438 156.203125 C 261 171.539062 281.628906 199.902344 287.070312 232.75 C 283.300781 235.6875 279.371094 238.433594 275.300781 240.972656 C 273.003906 239.015625 270.085938 237.9375 267.066406 237.9375 C 260.0625 237.9375 254.386719 243.601562 254.386719 250.59375 C 254.390625 250.9375 254.40625 251.28125 254.4375 251.625 C 238.632812 258.042969 221.355469 261.597656 203.222656 261.597656 C 191.382812 261.597656 179.902344 260.09375 168.957031 257.269531 C 171.152344 247.253906 174.207031 237.460938 178.0625 227.996094 C 178.453125 228.035156 178.84375 228.054688 179.234375 228.054688 C 186.234375 228.054688 191.914062 222.390625 191.914062 215.398438 C 191.910156 212.15625 190.660156 209.039062 188.421875 206.6875 C 196.316406 192.863281 206.078125 180.03125 217.546875 168.582031 C 221.953125 164.183594 226.601562 160.089844 231.398438 156.203125 Z M 129.917969 190.398438 C 129.683594 193.757812 129.5625 197.144531 129.5625 200.5625 C 129.5625 201.742188 129.582031 202.921875 129.613281 204.097656 C 125.335938 206.246094 122.636719 210.617188 122.636719 215.398438 C 122.644531 221.148438 126.53125 226.167969 132.101562 227.625 C 133.164062 233.230469 134.542969 238.726562 136.230469 244.085938 C 125.652344 238.125 115.949219 230.792969 107.371094 222.332031 C 113.488281 210.703125 121.085938 199.976562 129.917969 190.398438 Z M 84.847656 209.644531 C 88.4375 214.664062 92.320312 219.457031 96.507812 223.972656 C 88.410156 240.984375 83.242188 259.644531 81.660156 279.3125 C 81.382812 279.105469 81.121094 278.878906 80.847656 278.675781 C 78.183594 269.3125 76.828125 259.628906 76.816406 249.894531 C 76.832031 236.085938 79.5625 222.410156 84.847656 209.644531 Z M 103.246094 230.789062 C 114.269531 241.222656 126.929688 249.949219 140.800781 256.546875 C 144.910156 266.339844 150.066406 275.589844 156.128906 284.15625 C 155.890625 288 155.769531 291.863281 155.769531 295.738281 C 155.769531 300.402344 155.945312 305.046875 156.285156 309.664062 C 149.449219 308.726562 142.75 307.367188 136.214844 305.617188 C 135.761719 298.972656 130.234375 293.8125 123.5625 293.8125 C 119.988281 293.820312 116.582031 295.328125 114.183594 297.972656 C 105.84375 294.390625 97.859375 290.140625 90.308594 285.28125 C 91.191406 265.9375 95.726562 247.550781 103.246094 230.789062 Z M 288.269531 243.0625 C 288.421875 245.335938 288.503906 247.617188 288.511719 249.894531 C 288.507812 256.886719 287.808594 263.859375 286.425781 270.714844 C 274.007812 281.597656 259.917969 290.628906 244.59375 297.382812 C 242.191406 294.628906 238.714844 293.046875 235.058594 293.042969 C 228.21875 293.050781 222.617188 298.46875 222.398438 305.292969 C 213.359375 307.789062 204.007812 309.535156 194.40625 310.445312 C 183.328125 302.34375 173.523438 292.617188 165.34375 281.609375 C 165.753906 276.398438 166.390625 271.226562 167.246094 266.105469 C 178.753906 269.03125 190.804688 270.59375 203.222656 270.59375 C 222.730469 270.59375 241.328125 266.722656 258.320312 259.734375 C 260.671875 261.984375 263.804688 263.246094 267.066406 263.25 C 274.070312 263.25 279.746094 257.582031 279.746094 250.59375 C 279.742188 250.011719 279.699219 249.429688 279.613281 248.851562 C 282.570312 247.019531 285.457031 245.089844 288.269531 243.0625 Z M 153.0625 261.707031 C 154.867188 262.371094 156.695312 262.992188 158.535156 263.585938 C 158.171875 265.683594 157.84375 267.785156 157.550781 269.898438 C 155.964844 267.226562 154.464844 264.496094 153.0625 261.707031 Z M 284.679688 277.617188 C 284.402344 278.789062 284.101562 279.957031 283.785156 281.121094 C 284.101562 279.957031 284.402344 278.789062 284.679688 277.617188 Z M 282.078125 285.78125 C 275.195312 304.820312 262.972656 321.484375 246.875 333.789062 C 232.246094 330.734375 218.472656 325.359375 205.980469 318.039062 C 212.5625 316.992188 219.019531 315.570312 225.332031 313.800781 C 227.738281 316.683594 231.300781 318.351562 235.058594 318.355469 C 242.015625 318.351562 247.671875 312.753906 247.730469 305.808594 C 259.988281 300.449219 271.503906 293.710938 282.078125 285.78125 Z M 164.785156 295.21875 C 169.730469 300.945312 175.117188 306.28125 180.890625 311.175781 C 180.171875 311.183594 179.449219 311.191406 178.730469 311.191406 C 174.242188 311.191406 169.800781 311.007812 165.40625 310.652344 C 164.992188 305.710938 164.78125 300.734375 164.78125 295.738281 C 164.78125 295.566406 164.785156 295.390625 164.785156 295.21875 Z M 90.191406 295.746094 C 96.8125 299.714844 103.726562 303.25 110.890625 306.320312 C 110.886719 306.371094 110.882812 306.421875 110.882812 306.472656 C 110.882812 313.460938 116.558594 319.128906 123.5625 319.128906 C 127.484375 319.121094 131.183594 317.304688 133.578125 314.207031 C 141.253906 316.285156 149.136719 317.847656 157.195312 318.851562 C 158.675781 330.828125 161.332031 342.570312 165.027344 353.957031 C 133.515625 348.613281 106.105469 329.339844 90.457031 301.515625 C 90.339844 299.601562 90.234375 297.679688 90.191406 295.746094 Z M 191.949219 319.683594 C 205.417969 329.054688 220.582031 336.121094 236.835938 340.53125 C 220.464844 350.320312 201.75 355.511719 182.664062 355.550781 C 180.074219 355.519531 177.484375 355.386719 174.90625 355.164062 C 170.890625 343.71875 168.03125 331.855469 166.394531 319.746094 C 170.46875 320.035156 174.582031 320.183594 178.730469 320.183594 C 183.175781 320.183594 187.585938 320.015625 191.949219 319.683594 Z M 191.949219 319.683594 "/>
</g>
</svg>
